<mxfile host="app.diagrams.net" modified="2023-08-25T04:26:52.537Z" agent="Mozilla/5.0 (Windows NT 10.0; Win64; x64) AppleWebKit/537.36 (KHTML, like Gecko) Chrome/116.0.0.0 Safari/537.36" etag="l-y0fDZgCWy0ze7N2GQ6" version="21.6.8" type="github">
  <diagram name="Page-1" id="177Y1PXUK1EjTTsJiQ3w">
    <mxGraphModel dx="1434" dy="750" grid="0" gridSize="10" guides="1" tooltips="1" connect="1" arrows="1" fold="1" page="1" pageScale="1" pageWidth="850" pageHeight="1100" math="0" shadow="0">
      <root>
        <mxCell id="0" />
        <mxCell id="1" parent="0" />
        <mxCell id="zIs3n2pkOhi-q2zzHzzz-7" style="edgeStyle=orthogonalEdgeStyle;rounded=0;orthogonalLoop=1;jettySize=auto;html=1;entryX=0;entryY=0.5;entryDx=0;entryDy=0;" edge="1" parent="1" source="zIs3n2pkOhi-q2zzHzzz-1" target="zIs3n2pkOhi-q2zzHzzz-2">
          <mxGeometry relative="1" as="geometry" />
        </mxCell>
        <mxCell id="zIs3n2pkOhi-q2zzHzzz-1" value="Studi Literatur Analisis Sentimen" style="rounded=1;whiteSpace=wrap;html=1;" vertex="1" parent="1">
          <mxGeometry x="157" y="122" width="170" height="60" as="geometry" />
        </mxCell>
        <mxCell id="zIs3n2pkOhi-q2zzHzzz-8" style="edgeStyle=orthogonalEdgeStyle;rounded=0;orthogonalLoop=1;jettySize=auto;html=1;" edge="1" parent="1" source="zIs3n2pkOhi-q2zzHzzz-2" target="zIs3n2pkOhi-q2zzHzzz-3">
          <mxGeometry relative="1" as="geometry" />
        </mxCell>
        <mxCell id="zIs3n2pkOhi-q2zzHzzz-2" value="Pencarian Dataset" style="rounded=1;whiteSpace=wrap;html=1;" vertex="1" parent="1">
          <mxGeometry x="387" y="122" width="170" height="60" as="geometry" />
        </mxCell>
        <mxCell id="zIs3n2pkOhi-q2zzHzzz-9" style="edgeStyle=orthogonalEdgeStyle;rounded=0;orthogonalLoop=1;jettySize=auto;html=1;" edge="1" parent="1" source="zIs3n2pkOhi-q2zzHzzz-3" target="zIs3n2pkOhi-q2zzHzzz-4">
          <mxGeometry relative="1" as="geometry" />
        </mxCell>
        <mxCell id="zIs3n2pkOhi-q2zzHzzz-3" value="Inisialisasi Google Colab" style="rounded=1;whiteSpace=wrap;html=1;" vertex="1" parent="1">
          <mxGeometry x="607" y="122" width="170" height="60" as="geometry" />
        </mxCell>
        <mxCell id="zIs3n2pkOhi-q2zzHzzz-10" style="edgeStyle=orthogonalEdgeStyle;rounded=0;orthogonalLoop=1;jettySize=auto;html=1;entryX=1;entryY=0.5;entryDx=0;entryDy=0;" edge="1" parent="1" source="zIs3n2pkOhi-q2zzHzzz-4" target="zIs3n2pkOhi-q2zzHzzz-5">
          <mxGeometry relative="1" as="geometry" />
        </mxCell>
        <mxCell id="zIs3n2pkOhi-q2zzHzzz-4" value="Eksplorasi Data Awal" style="rounded=1;whiteSpace=wrap;html=1;" vertex="1" parent="1">
          <mxGeometry x="607" y="252" width="170" height="60" as="geometry" />
        </mxCell>
        <mxCell id="zIs3n2pkOhi-q2zzHzzz-11" style="edgeStyle=orthogonalEdgeStyle;rounded=0;orthogonalLoop=1;jettySize=auto;html=1;entryX=1;entryY=0.5;entryDx=0;entryDy=0;" edge="1" parent="1" source="zIs3n2pkOhi-q2zzHzzz-5" target="zIs3n2pkOhi-q2zzHzzz-6">
          <mxGeometry relative="1" as="geometry" />
        </mxCell>
        <mxCell id="zIs3n2pkOhi-q2zzHzzz-5" value="Pemrosesan Teks" style="rounded=1;whiteSpace=wrap;html=1;" vertex="1" parent="1">
          <mxGeometry x="387" y="252" width="170" height="60" as="geometry" />
        </mxCell>
        <mxCell id="zIs3n2pkOhi-q2zzHzzz-15" style="edgeStyle=orthogonalEdgeStyle;rounded=0;orthogonalLoop=1;jettySize=auto;html=1;exitX=1;exitY=0.5;exitDx=0;exitDy=0;" edge="1" parent="1" source="zIs3n2pkOhi-q2zzHzzz-16" target="zIs3n2pkOhi-q2zzHzzz-14">
          <mxGeometry relative="1" as="geometry">
            <mxPoint x="118" y="351" as="sourcePoint" />
          </mxGeometry>
        </mxCell>
        <mxCell id="zIs3n2pkOhi-q2zzHzzz-17" style="edgeStyle=orthogonalEdgeStyle;rounded=0;orthogonalLoop=1;jettySize=auto;html=1;" edge="1" parent="1" source="zIs3n2pkOhi-q2zzHzzz-6" target="zIs3n2pkOhi-q2zzHzzz-16">
          <mxGeometry relative="1" as="geometry" />
        </mxCell>
        <mxCell id="zIs3n2pkOhi-q2zzHzzz-6" value="Analisis Frekuensi Data" style="rounded=1;whiteSpace=wrap;html=1;" vertex="1" parent="1">
          <mxGeometry x="157" y="252" width="170" height="60" as="geometry" />
        </mxCell>
        <mxCell id="zIs3n2pkOhi-q2zzHzzz-13" style="edgeStyle=orthogonalEdgeStyle;rounded=0;orthogonalLoop=1;jettySize=auto;html=1;entryX=0.5;entryY=0;entryDx=0;entryDy=0;" edge="1" parent="1" source="zIs3n2pkOhi-q2zzHzzz-12" target="zIs3n2pkOhi-q2zzHzzz-1">
          <mxGeometry relative="1" as="geometry" />
        </mxCell>
        <mxCell id="zIs3n2pkOhi-q2zzHzzz-12" value="start" style="ellipse;whiteSpace=wrap;html=1;" vertex="1" parent="1">
          <mxGeometry x="197" y="34" width="90" height="40" as="geometry" />
        </mxCell>
        <mxCell id="zIs3n2pkOhi-q2zzHzzz-14" value="end" style="ellipse;whiteSpace=wrap;html=1;" vertex="1" parent="1">
          <mxGeometry x="406" y="376" width="90" height="40" as="geometry" />
        </mxCell>
        <mxCell id="zIs3n2pkOhi-q2zzHzzz-16" value="VIsualisasi Data" style="rounded=1;whiteSpace=wrap;html=1;" vertex="1" parent="1">
          <mxGeometry x="157" y="366" width="170" height="60" as="geometry" />
        </mxCell>
      </root>
    </mxGraphModel>
  </diagram>
</mxfile>
